# This file uses centimeters as units for non-parametric coordinates.

mtllib BasicTableGame.mtl
g default
v -0.200000 0.100710 0.200143
v 0.200000 0.100710 0.200143
v -0.200000 0.100710 -0.199857
v 0.200000 0.100710 -0.199857
v -0.200000 0.000710 -0.199857
v 0.200000 0.000710 -0.199857
v -0.200000 0.000710 0.200143
v 0.200000 0.000710 0.200143
vt 0.821757 0.821796
vt 0.178204 0.821757
vt 0.178243 0.178204
vt 0.821796 0.178243
vt 0.017354 0.178195
vt 0.821805 0.017354
vt 0.982646 0.821805
vt 0.178195 0.982646
vt 0.017316 0.821748
vt 0.821748 0.982684
vt 0.178252 0.017316
vt 0.982684 0.178252
vn 0.000000 1.000000 0.000000
vn 0.000000 1.000000 0.000000
vn 0.000000 1.000000 0.000000
vn 0.000000 1.000000 0.000000
vn 0.000000 0.000000 -1.000000
vn 0.000000 0.000000 -1.000000
vn 0.000000 0.000000 -1.000000
vn 0.000000 0.000000 -1.000000
vn 0.000000 0.000000 1.000000
vn 0.000000 0.000000 1.000000
vn 0.000000 0.000000 1.000000
vn 0.000000 0.000000 1.000000
vn 1.000000 0.000000 0.000000
vn 1.000000 0.000000 0.000000
vn 1.000000 0.000000 0.000000
vn 1.000000 0.000000 0.000000
vn -1.000000 0.000000 0.000000
vn -1.000000 0.000000 0.000000
vn -1.000000 0.000000 0.000000
vn -1.000000 0.000000 0.000000
s off
g BasicTableGame
usemtl initialShadingGroup
f 1/1/1 2/2/2 4/3/3 3/4/4
f 3/4/5 4/3/6 6/11/7 5/6/8
f 7/10/9 8/8/10 2/2/11 1/1/12
f 2/2/13 8/9/14 6/5/15 4/3/16
f 7/7/17 1/1/18 3/4/19 5/12/20
