# This file uses centimeters as units for non-parametric coordinates.

mtllib PH_Chair.mtl
g default
v -0.084695 0.336530 0.119909
v 0.084695 0.336530 0.119909
v -0.084695 0.435806 0.119909
v 0.084695 0.435806 0.119909
v -0.084695 0.435806 0.097436
v 0.084695 0.435806 0.097436
v -0.084695 0.336531 0.097436
v 0.084695 0.336531 0.097436
v 0.067407 0.449639 0.113702
v 0.093768 0.449639 0.113702
v 0.067407 0.449639 0.087341
v 0.093768 0.449639 0.087341
v 0.067407 0.231883 0.087341
v 0.093768 0.231883 0.087341
v 0.067407 0.231883 0.113702
v 0.093768 0.231883 0.113702
v -0.096553 0.449639 0.113702
v -0.070192 0.449639 0.113702
v -0.096553 0.449639 0.087341
v -0.070192 0.449639 0.087341
v -0.096553 0.231883 0.087341
v -0.070192 0.231883 0.087341
v -0.096553 0.231883 0.113702
v -0.070192 0.231883 0.113702
v -0.111805 0.222764 -0.081651
v -0.085445 0.222764 -0.081651
v -0.111805 0.222764 -0.108012
v -0.085445 0.222764 -0.108012
v -0.111805 0.005008 -0.108012
v -0.085445 0.005008 -0.108012
v -0.111805 0.005008 -0.081651
v -0.085445 0.005008 -0.081651
v 0.082600 0.222764 -0.084496
v 0.108960 0.222764 -0.084496
v 0.082600 0.222764 -0.110857
v 0.108960 0.222764 -0.110857
v 0.082600 0.005008 -0.110857
v 0.108960 0.005008 -0.110857
v 0.082600 0.005008 -0.084496
v 0.108960 0.005008 -0.084496
v 0.082600 0.222764 0.113702
v 0.108960 0.222764 0.113702
v 0.082600 0.222764 0.087341
v 0.108960 0.222764 0.087341
v 0.082600 0.005008 0.087341
v 0.108960 0.005008 0.087341
v 0.082600 0.005008 0.113702
v 0.108960 0.005008 0.113702
v -0.111805 0.222764 0.113702
v -0.085445 0.222764 0.113702
v -0.111805 0.222764 0.087341
v -0.085445 0.222764 0.087341
v -0.111805 0.005008 0.087341
v -0.085445 0.005008 0.087341
v -0.111805 0.005008 0.113702
v -0.085445 0.005008 0.113702
v -0.122939 0.243001 0.122939
v 0.122939 0.243001 0.122939
v -0.122939 0.243001 -0.122939
v 0.122939 0.243001 -0.122939
v -0.122939 0.209291 -0.122939
v 0.122939 0.209291 -0.122939
v -0.122939 0.209291 0.122939
v 0.122939 0.209291 0.122939
vt 0.375000 0.000000
vt 0.625000 0.000000
vt 0.375000 0.250000
vt 0.625000 0.250000
vt 0.375000 0.500000
vt 0.625000 0.500000
vt 0.375000 0.750000
vt 0.625000 0.750000
vt 0.375000 1.000000
vt 0.625000 1.000000
vt 0.875000 0.000000
vt 0.875000 0.250000
vt 0.125000 0.000000
vt 0.125000 0.250000
vt 0.375000 0.250000
vt 0.625000 0.250000
vt 0.625000 0.500000
vt 0.375000 0.500000
vt 0.375000 0.750000
vt 0.625000 0.750000
vt 0.625000 1.000000
vt 0.375000 1.000000
vt 0.625000 0.000000
vt 0.875000 0.000000
vt 0.875000 0.250000
vt 0.125000 0.000000
vt 0.375000 0.000000
vt 0.125000 0.250000
vt 0.375000 0.250000
vt 0.625000 0.250000
vt 0.625000 0.500000
vt 0.375000 0.500000
vt 0.375000 0.750000
vt 0.625000 0.750000
vt 0.625000 1.000000
vt 0.375000 1.000000
vt 0.625000 0.000000
vt 0.875000 0.000000
vt 0.875000 0.250000
vt 0.125000 0.000000
vt 0.375000 0.000000
vt 0.125000 0.250000
vt 0.375000 0.250000
vt 0.625000 0.250000
vt 0.625000 0.500000
vt 0.375000 0.500000
vt 0.375000 0.750000
vt 0.625000 0.750000
vt 0.625000 1.000000
vt 0.375000 1.000000
vt 0.625000 0.000000
vt 0.875000 0.000000
vt 0.875000 0.250000
vt 0.125000 0.000000
vt 0.375000 0.000000
vt 0.125000 0.250000
vt 0.375000 0.250000
vt 0.625000 0.250000
vt 0.625000 0.500000
vt 0.375000 0.500000
vt 0.375000 0.750000
vt 0.625000 0.750000
vt 0.625000 1.000000
vt 0.375000 1.000000
vt 0.625000 0.000000
vt 0.875000 0.000000
vt 0.875000 0.250000
vt 0.125000 0.000000
vt 0.375000 0.000000
vt 0.125000 0.250000
vt 0.375000 0.250000
vt 0.625000 0.250000
vt 0.625000 0.500000
vt 0.375000 0.500000
vt 0.375000 0.750000
vt 0.625000 0.750000
vt 0.625000 1.000000
vt 0.375000 1.000000
vt 0.625000 0.000000
vt 0.875000 0.000000
vt 0.875000 0.250000
vt 0.125000 0.000000
vt 0.375000 0.000000
vt 0.125000 0.250000
vt 0.375000 0.250000
vt 0.625000 0.250000
vt 0.625000 0.500000
vt 0.375000 0.500000
vt 0.375000 0.750000
vt 0.625000 0.750000
vt 0.625000 1.000000
vt 0.375000 1.000000
vt 0.625000 0.000000
vt 0.875000 0.000000
vt 0.875000 0.250000
vt 0.125000 0.000000
vt 0.375000 0.000000
vt 0.125000 0.250000
vt 0.375000 0.000000
vt 0.625000 0.000000
vt 0.625000 0.250000
vt 0.375000 0.250000
vt 0.625000 0.500000
vt 0.375000 0.500000
vt 0.625000 0.750000
vt 0.375000 0.750000
vt 0.625000 1.000000
vt 0.375000 1.000000
vt 0.875000 0.000000
vt 0.875000 0.250000
vt 0.125000 0.000000
vt 0.125000 0.250000
vn 0.000000 -0.000000 1.000000
vn 0.000000 -0.000000 1.000000
vn 0.000000 -0.000000 1.000000
vn 0.000000 -0.000000 1.000000
vn 0.000000 1.000000 0.000000
vn 0.000000 1.000000 0.000000
vn 0.000000 1.000000 0.000000
vn 0.000000 1.000000 0.000000
vn 0.000000 0.000000 -1.000000
vn 0.000000 0.000000 -1.000000
vn 0.000000 0.000000 -1.000000
vn 0.000000 0.000000 -1.000000
vn 0.000000 -1.000000 -0.000006
vn 0.000000 -1.000000 -0.000006
vn 0.000000 -1.000000 -0.000006
vn 0.000000 -1.000000 -0.000006
vn 1.000000 -0.000000 0.000000
vn 1.000000 -0.000000 0.000000
vn 1.000000 -0.000000 0.000000
vn 1.000000 -0.000000 0.000000
vn -1.000000 0.000000 0.000000
vn -1.000000 0.000000 0.000000
vn -1.000000 0.000000 0.000000
vn -1.000000 0.000000 0.000000
vn 0.000000 0.000000 -1.000000
vn 0.000000 0.000000 -1.000000
vn 0.000000 0.000000 -1.000000
vn 0.000000 0.000000 -1.000000
vn 0.000000 -0.000000 1.000000
vn 0.000000 -0.000000 1.000000
vn 0.000000 -0.000000 1.000000
vn 0.000000 -0.000000 1.000000
vn 1.000000 0.000000 0.000000
vn 1.000000 0.000000 0.000000
vn 1.000000 0.000000 0.000000
vn 1.000000 0.000000 0.000000
vn -1.000000 0.000000 0.000000
vn -1.000000 0.000000 0.000000
vn -1.000000 0.000000 0.000000
vn -1.000000 0.000000 0.000000
vn 0.000000 1.000000 0.000005
vn 0.000000 1.000000 0.000005
vn 0.000000 1.000000 0.000005
vn 0.000000 1.000000 0.000005
vn 0.000000 0.000000 -1.000000
vn 0.000000 0.000000 -1.000000
vn 0.000000 0.000000 -1.000000
vn 0.000000 0.000000 -1.000000
vn 0.000000 -0.000000 1.000000
vn 0.000000 -0.000000 1.000000
vn 0.000000 -0.000000 1.000000
vn 0.000000 -0.000000 1.000000
vn 1.000000 0.000000 0.000000
vn 1.000000 0.000000 0.000000
vn 1.000000 0.000000 0.000000
vn 1.000000 0.000000 0.000000
vn -1.000000 0.000000 0.000000
vn -1.000000 0.000000 0.000000
vn -1.000000 0.000000 0.000000
vn -1.000000 0.000000 0.000000
vn 0.000000 1.000000 0.000005
vn 0.000000 1.000000 0.000005
vn 0.000000 1.000000 0.000005
vn 0.000000 1.000000 0.000005
vn 0.000000 -0.000000 -1.000000
vn 0.000000 -0.000000 -1.000000
vn 0.000000 -0.000000 -1.000000
vn 0.000000 -0.000000 -1.000000
vn 0.000000 0.000000 1.000000
vn 0.000000 0.000000 1.000000
vn 0.000000 0.000000 1.000000
vn 0.000000 0.000000 1.000000
vn 1.000000 0.000000 0.000000
vn 1.000000 0.000000 0.000000
vn 1.000000 0.000000 0.000000
vn 1.000000 0.000000 0.000000
vn -1.000000 0.000000 0.000000
vn -1.000000 0.000000 0.000000
vn -1.000000 0.000000 0.000000
vn -1.000000 0.000000 0.000000
vn 0.000000 0.000000 -1.000000
vn 0.000000 0.000000 -1.000000
vn 0.000000 0.000000 -1.000000
vn 0.000000 0.000000 -1.000000
vn 0.000000 -0.000000 1.000000
vn 0.000000 -0.000000 1.000000
vn 0.000000 -0.000000 1.000000
vn 0.000000 -0.000000 1.000000
vn 1.000000 0.000000 0.000000
vn 1.000000 0.000000 0.000000
vn 1.000000 0.000000 0.000000
vn 1.000000 0.000000 0.000000
vn -1.000000 0.000000 0.000000
vn -1.000000 0.000000 0.000000
vn -1.000000 0.000000 0.000000
vn -1.000000 0.000000 0.000000
vn 0.000000 -0.000000 -1.000000
vn 0.000000 -0.000000 -1.000000
vn 0.000000 -0.000000 -1.000000
vn 0.000000 -0.000000 -1.000000
vn 0.000000 0.000000 1.000000
vn 0.000000 0.000000 1.000000
vn 0.000000 0.000000 1.000000
vn 0.000000 0.000000 1.000000
vn 1.000000 0.000000 0.000000
vn 1.000000 0.000000 0.000000
vn 1.000000 0.000000 0.000000
vn 1.000000 0.000000 0.000000
vn -1.000000 0.000000 0.000000
vn -1.000000 0.000000 0.000000
vn -1.000000 0.000000 0.000000
vn -1.000000 0.000000 0.000000
vn 0.000000 -0.000000 -1.000000
vn 0.000000 -0.000000 -1.000000
vn 0.000000 -0.000000 -1.000000
vn 0.000000 -0.000000 -1.000000
vn 0.000000 0.000000 1.000000
vn 0.000000 0.000000 1.000000
vn 0.000000 0.000000 1.000000
vn 0.000000 0.000000 1.000000
vn 1.000000 0.000000 0.000000
vn 1.000000 0.000000 0.000000
vn 1.000000 0.000000 0.000000
vn 1.000000 0.000000 0.000000
vn -1.000000 0.000000 0.000000
vn -1.000000 0.000000 0.000000
vn -1.000000 0.000000 0.000000
vn -1.000000 0.000000 0.000000
vn 0.000000 1.000000 0.000000
vn 0.000000 1.000000 0.000000
vn 0.000000 1.000000 0.000000
vn 0.000000 1.000000 0.000000
vn 0.000000 0.000000 -1.000000
vn 0.000000 0.000000 -1.000000
vn 0.000000 0.000000 -1.000000
vn 0.000000 0.000000 -1.000000
vn 0.000000 -1.000000 -0.000000
vn 0.000000 -1.000000 -0.000000
vn 0.000000 -1.000000 -0.000000
vn 0.000000 -1.000000 -0.000000
vn 0.000000 0.000000 1.000000
vn 0.000000 0.000000 1.000000
vn 0.000000 0.000000 1.000000
vn 0.000000 0.000000 1.000000
vn 1.000000 0.000000 0.000000
vn 1.000000 0.000000 0.000000
vn 1.000000 0.000000 0.000000
vn 1.000000 0.000000 0.000000
vn -1.000000 0.000000 0.000000
vn -1.000000 0.000000 0.000000
vn -1.000000 0.000000 0.000000
vn -1.000000 0.000000 0.000000
s off
g PH_Chair
usemtl initialShadingGroup
f 1/1/1 2/2/2 4/4/3 3/3/4
f 3/3/5 4/4/6 6/6/7 5/5/8
f 5/5/9 6/6/10 8/8/11 7/7/12
f 7/7/13 8/8/14 2/10/15 1/9/16
f 2/2/17 8/11/18 6/12/19 4/4/20
f 7/13/21 1/1/22 3/3/23 5/14/24
f 11/15/25 12/16/26 14/17/27 13/18/28
f 15/19/29 16/20/30 10/21/31 9/22/32
f 10/23/33 16/24/34 14/25/35 12/16/36
f 15/26/37 9/27/38 11/15/39 13/28/40
f 10/23/41 12/16/42 11/15/43 9/22/44
f 19/29/45 20/30/46 22/31/47 21/32/48
f 23/33/49 24/34/50 18/35/51 17/36/52
f 18/37/53 24/38/54 22/39/55 20/30/56
f 23/40/57 17/41/58 19/29/59 21/42/60
f 18/37/61 20/30/62 19/29/63 17/36/64
f 27/43/65 28/44/66 30/45/67 29/46/68
f 31/47/69 32/48/70 26/49/71 25/50/72
f 26/51/73 32/52/74 30/53/75 28/44/76
f 31/54/77 25/55/78 27/43/79 29/56/80
f 35/57/81 36/58/82 38/59/83 37/60/84
f 39/61/85 40/62/86 34/63/87 33/64/88
f 34/65/89 40/66/90 38/67/91 36/58/92
f 39/68/93 33/69/94 35/57/95 37/70/96
f 43/71/97 44/72/98 46/73/99 45/74/100
f 47/75/101 48/76/102 42/77/103 41/78/104
f 42/79/105 48/80/106 46/81/107 44/72/108
f 47/82/109 41/83/110 43/71/111 45/84/112
f 51/85/113 52/86/114 54/87/115 53/88/116
f 55/89/117 56/90/118 50/91/119 49/92/120
f 50/93/121 56/94/122 54/95/123 52/86/124
f 55/96/125 49/97/126 51/85/127 53/98/128
f 57/99/129 58/100/130 60/101/131 59/102/132
f 59/102/133 60/101/134 62/103/135 61/104/136
f 61/104/137 62/103/138 64/105/139 63/106/140
f 63/106/141 64/105/142 58/107/143 57/108/144
f 58/100/145 64/109/146 62/110/147 60/101/148
f 63/111/149 57/99/150 59/102/151 61/112/152
