# This file uses centimeters as units for non-parametric coordinates.

mtllib OfficeTablet.mtl
g default
v 0.063182 0.075494 0.010267
v -0.063182 0.075494 0.010267
v -0.063182 -0.000483 0.060007
v -0.063182 -0.000483 -0.009877
v 0.063182 -0.000483 0.060007
v 0.063182 -0.000483 -0.009877
v -0.063182 0.006604 0.055367
v -0.063182 0.006604 -0.007998
v 0.063182 0.006604 0.055367
v 0.063182 0.006604 -0.007998
v 0.063182 0.006604 -0.026278
v -0.063182 0.006604 -0.026278
v 0.063182 -0.000483 -0.028157
v -0.063182 -0.000483 -0.028157
v 0.063182 0.006604 -0.018765
v -0.063182 0.006604 -0.018765
v 0.063182 -0.000483 -0.021345
v -0.063182 -0.000483 -0.021345
v 0.063182 0.012861 -0.017988
v -0.063182 0.012861 -0.017988
v 0.063182 0.013405 -0.021833
v -0.063182 0.013405 -0.021833
v 0.066652 0.120208 0.022048
v 0.070573 0.119384 0.021809
v 0.073898 0.117039 0.021126
v 0.076119 0.113529 0.020106
v 0.076899 0.109389 0.018901
v -0.066652 0.120208 0.022048
v -0.070573 0.119384 0.021809
v -0.073898 0.117039 0.021126
v -0.076119 0.113529 0.020106
v -0.076899 0.109389 0.018901
v 0.067710 0.121756 0.020888
v 0.071631 0.120933 0.020649
v 0.074955 0.118587 0.019966
v 0.077177 0.115077 0.018946
v 0.077957 0.110937 0.017741
v -0.077957 0.110937 0.017741
v -0.077177 0.115077 0.018946
v -0.074955 0.118587 0.019966
v -0.071631 0.120933 0.020649
v -0.067710 0.121756 0.020888
v -0.076899 0.017432 -0.007844
v -0.076119 0.013291 -0.009048
v -0.073898 0.009781 -0.010069
v -0.070573 0.007436 -0.010751
v -0.066652 0.006612 -0.010990
v -0.067710 0.005927 -0.012800
v -0.071631 0.006751 -0.012560
v -0.074955 0.009096 -0.011878
v -0.077177 0.012606 -0.010857
v -0.077957 0.016747 -0.009653
v 0.066652 0.122293 0.014878
v 0.070574 0.121470 0.014639
v 0.073898 0.119124 0.013956
v 0.076119 0.115614 0.012936
v 0.076899 0.111474 0.011731
v 0.077957 0.112159 0.013541
v 0.077177 0.116299 0.014745
v 0.074955 0.119809 0.015766
v 0.071631 0.122154 0.016448
v 0.067710 0.122978 0.016688
v -0.067710 0.122978 0.016688
v -0.071631 0.122154 0.016448
v -0.074955 0.119809 0.015766
v -0.077177 0.116299 0.014745
v -0.077957 0.112159 0.013541
v -0.066652 0.122293 0.014878
v -0.070574 0.121470 0.014639
v -0.073898 0.119124 0.013956
v -0.076119 0.115614 0.012936
v -0.076899 0.111474 0.011731
v 0.064099 0.119776 0.013479
v 0.068020 0.118953 0.013240
v 0.071345 0.116608 0.012557
v 0.073566 0.113098 0.011537
v 0.074346 0.108957 0.010332
v -0.074346 0.108957 0.010332
v -0.073566 0.113098 0.011537
v -0.071345 0.116608 0.012557
v -0.068020 0.118953 0.013240
v -0.064099 0.119776 0.013479
v -0.077957 0.017968 -0.013854
v -0.077177 0.013828 -0.015058
v -0.074955 0.010318 -0.016079
v -0.071631 0.007973 -0.016761
v -0.067710 0.007149 -0.017000
v -0.076899 0.018714 -0.015247
v -0.076062 0.014881 -0.016362
v -0.073679 0.011631 -0.017307
v -0.070112 0.009460 -0.017938
v -0.065905 0.008698 -0.018160
v -0.064099 0.011572 -0.017991
v -0.068020 0.012396 -0.017752
v -0.071345 0.014741 -0.017070
v -0.073566 0.018251 -0.016049
v -0.074346 0.022391 -0.014845
v 0.066652 0.006612 -0.010990
v 0.070573 0.007436 -0.010751
v 0.073898 0.009781 -0.010069
v 0.076119 0.013291 -0.009048
v 0.076899 0.017432 -0.007844
v 0.077957 0.016747 -0.009653
v 0.077177 0.012606 -0.010857
v 0.074955 0.009096 -0.011878
v 0.071631 0.006751 -0.012560
v 0.067710 0.005927 -0.012800
v 0.067710 0.007149 -0.017000
v 0.071631 0.007973 -0.016761
v 0.074955 0.010318 -0.016079
v 0.077177 0.013828 -0.015058
v 0.077957 0.017968 -0.013854
v 0.066652 0.008698 -0.018160
v 0.070573 0.009521 -0.017921
v 0.073898 0.011866 -0.017239
v 0.076119 0.015376 -0.016218
v 0.076899 0.019517 -0.015014
v 0.073566 0.018251 -0.016049
v 0.071345 0.014741 -0.017070
v 0.068020 0.012396 -0.017752
v 0.064099 0.011572 -0.017991
v 0.074346 0.022391 -0.014845
v 0.071345 0.014181 -0.015143
v 0.073566 0.017691 -0.014122
v 0.068020 0.011835 -0.015825
v 0.064099 0.011012 -0.016064
v -0.064099 0.011012 -0.016064
v -0.068020 0.011835 -0.015825
v -0.071345 0.014181 -0.015143
v -0.073566 0.017691 -0.014122
v -0.074346 0.021831 -0.012918
v -0.074346 0.108397 0.012259
v -0.073566 0.112537 0.013463
v -0.071345 0.116047 0.014484
v -0.068020 0.118393 0.015166
v -0.064099 0.119216 0.015406
v 0.064099 0.119216 0.015406
v 0.068020 0.118393 0.015166
v 0.071345 0.116047 0.014484
v 0.073566 0.112537 0.013463
v 0.074346 0.108397 0.012259
v 0.074346 0.021831 -0.012918
vt 0.198927 0.713819
vt 0.198930 0.895959
vt 0.198924 0.503389
vt 0.554031 0.481734
vt 0.554037 0.914693
vt 0.554037 0.895954
vt 0.554032 0.503384
vt 0.728888 0.385128
vt 0.728884 0.030022
vt 0.554034 0.713814
vt 0.026296 0.868929
vt 0.198930 0.914698
vt 0.600134 0.915039
vt 0.992651 0.943463
vt 0.600142 0.980578
vt 0.971357 0.964694
vt 0.762998 0.403241
vt 0.733691 0.403242
vt 0.762993 0.011908
vt 0.974044 0.945683
vt 0.600136 0.933778
vt 0.562730 0.943514
vt 0.955241 0.914997
vt 0.955247 0.964423
vt 0.600140 0.964466
vt 0.600138 0.954541
vt 0.955245 0.954499
vt 0.584030 0.964740
vt 0.565171 0.960752
vt 0.990214 0.960701
vt 0.955249 0.980536
vt 0.756400 0.030021
vt 0.756405 0.385128
vt 0.733686 0.011908
vt 0.710566 0.854450
vt 0.042400 0.854460
vt 0.198924 0.481739
vt 0.726670 0.868919
vt 0.955243 0.933736
vt 0.581338 0.945730
vt 0.888372 0.687963
vt 0.884789 0.699667
vt 0.879097 0.699587
vt 0.882887 0.689234
vt 0.881309 0.710998
vt 0.875314 0.710183
vt 0.918014 0.010885
vt 0.920320 0.022283
vt 0.914636 0.021801
vt 0.911998 0.011197
vt 0.922846 0.034298
vt 0.917497 0.032532
vt 0.956788 0.401711
vt 0.958869 0.414289
vt 0.953652 0.416155
vt 0.952435 0.405230
vt 0.959613 0.427307
vt 0.953843 0.427101
vt 0.957911 0.440291
vt 0.952861 0.438025
vt 0.954748 0.452824
vt 0.950711 0.448927
vt 0.968361 0.447559
vt 0.970651 0.437105
vt 0.976148 0.436662
vt 0.973847 0.446305
vt 0.971716 0.426544
vt 0.977259 0.426803
vt 0.971526 0.415896
vt 0.976962 0.416858
vt 0.970107 0.405190
vt 0.975464 0.406937
vt 0.868244 0.681923
vt 0.864695 0.692368
vt 0.858205 0.684473
vt 0.863058 0.673234
vt 0.859194 0.701980
vt 0.851562 0.694300
vt 0.895162 0.017497
vt 0.899686 0.027723
vt 0.892465 0.034940
vt 0.886812 0.024444
vt 0.902223 0.038453
vt 0.896267 0.046627
vt 0.935653 0.403152
vt 0.937148 0.414724
vt 0.928215 0.412694
vt 0.927547 0.399805
vt 0.937734 0.425741
vt 0.927394 0.426007
vt 0.937003 0.435969
vt 0.926855 0.439426
vt 0.934888 0.445498
vt 0.925357 0.452151
vt 0.923649 0.688179
vt 0.920152 0.699902
vt 0.914460 0.699866
vt 0.918167 0.689487
vt 0.916762 0.711260
vt 0.910762 0.710491
vt 0.882725 0.011085
vt 0.885056 0.022477
vt 0.879372 0.022009
vt 0.876710 0.011411
vt 0.887611 0.034485
vt 0.882256 0.032733
vt 0.903474 0.682283
vt 0.900006 0.692760
vt 0.893456 0.684920
vt 0.898226 0.673638
vt 0.894581 0.702417
vt 0.886891 0.694801
vt 0.859891 0.017749
vt 0.864437 0.027965
vt 0.857232 0.035196
vt 0.851556 0.024712
vt 0.866998 0.038692
vt 0.861057 0.046876
vt 0.990869 0.401769
vt 0.986505 0.405286
vt 0.906570 0.034832
vt 0.961620 0.399756
vt 0.872250 0.685934
vt 0.939812 0.446270
vt 0.941396 0.406904
vt 0.871334 0.035060
vt 0.907503 0.686264
vt 0.984753 0.448932
vt 0.988813 0.452793
vt 0.959448 0.452204
vt 0.632588 0.473019
vt 0.632610 0.010830
vt 0.650296 0.014348
vt 0.650273 0.469502
vt 0.991945 0.440283
vt 0.986893 0.438034
vt 0.993664 0.427309
vt 0.987898 0.427107
vt 0.992924 0.414316
vt 0.987704 0.416180
vt 0.961053 0.439435
vt 0.961456 0.426064
vt 0.962162 0.412668
vt 0.868891 0.696004
vt 0.864260 0.705658
vt 0.904235 0.024595
vt 0.900552 0.014245
vt 0.942920 0.416849
vt 0.943175 0.426796
vt 0.942128 0.436637
vt 0.904228 0.696362
vt 0.899675 0.706054
vt 0.868979 0.024827
vt 0.865272 0.014485
vt 0.689376 0.145259
vt 0.689372 0.134067
vt 0.694480 0.134066
vt 0.694484 0.145257
vt 0.715971 0.013754
vt 0.715972 0.024945
vt 0.710864 0.024945
vt 0.710863 0.013754
vt 0.715974 0.036136
vt 0.710866 0.036137
vt 0.716020 0.394979
vt 0.710912 0.394980
vt 0.716021 0.406170
vt 0.710913 0.406171
vt 0.700001 0.137498
vt 0.700002 0.148689
vt 0.694894 0.148690
vt 0.694893 0.137499
vt 0.700004 0.159881
vt 0.694896 0.159881
vt 0.700005 0.171072
vt 0.694897 0.171073
vt 0.700033 0.400561
vt 0.694925 0.400562
vt 0.700034 0.411753
vt 0.694926 0.411754
vt 0.700036 0.422944
vt 0.694928 0.422945
vt 0.715183 0.393206
vt 0.715178 0.382014
vt 0.720287 0.382012
vt 0.720291 0.393204
vt 0.715174 0.370823
vt 0.720282 0.370821
vt 0.715041 0.011981
vt 0.720149 0.011979
vt 0.689481 0.430706
vt 0.689477 0.419514
vt 0.694585 0.419513
vt 0.694589 0.430704
vt 0.689473 0.408323
vt 0.694581 0.408321
vt 0.689469 0.397131
vt 0.694577 0.397130
vt 0.689465 0.385940
vt 0.694573 0.385938
vt 0.689380 0.156450
vt 0.694488 0.156448
vt 0.054409 0.472991
vt 0.054431 0.010802
vt 0.665267 0.459485
vt 0.665288 0.024367
vt 0.675306 0.039361
vt 0.675286 0.444493
vt 0.678822 0.057046
vt 0.678805 0.426807
vt 0.021731 0.459454
vt 0.021752 0.024336
vt 0.036745 0.014319
vt 0.036723 0.469473
vt 0.011733 0.039329
vt 0.011713 0.444460
vt 0.008196 0.426775
vt 0.008214 0.057014
vn -1.000000 0.000000 0.000000
vn -1.000000 -0.000000 0.000000
vn -1.000000 -0.000000 0.000000
vn 1.000000 -0.000000 0.000000
vn 1.000000 -0.000000 0.000000
vn 1.000000 -0.000000 0.000000
vn 1.000000 -0.000000 0.000000
vn 0.000000 0.256282 -0.966602
vn 0.000000 0.256282 -0.966602
vn 0.000000 0.256282 -0.966602
vn 0.000000 0.256282 -0.966602
vn 0.000000 0.547731 0.836655
vn 0.000000 0.547730 0.836655
vn 0.000000 0.547730 0.836655
vn 0.000000 0.547731 0.836655
vn -1.000000 -0.000000 0.000000
vn -1.000000 -0.000000 0.000000
vn 1.000000 0.000000 0.000000
vn 0.000000 0.414428 -0.910082
vn 0.000000 0.414428 -0.910082
vn 0.000000 0.256279 -0.966603
vn 0.000000 0.256279 -0.966603
vn 0.000000 0.547730 0.836655
vn 0.000000 0.547730 0.836655
vn 0.000000 1.000000 0.000000
vn 0.000000 1.000000 0.000000
vn 0.000000 1.000000 0.000000
vn 0.000000 1.000000 0.000000
vn 1.000000 0.000000 0.000000
vn 1.000000 0.000000 0.000000
vn 1.000000 0.000000 0.000000
vn 1.000000 0.000000 0.000000
vn -1.000000 0.000000 0.000000
vn -1.000000 0.000000 0.000000
vn -1.000000 0.000000 0.000000
vn -1.000000 0.000000 0.000000
vn 0.000000 0.990141 0.140077
vn 0.000000 0.990141 0.140077
vn 0.000000 0.990141 0.140077
vn 0.000000 0.990141 0.140077
vn 1.000000 0.000001 0.000000
vn 1.000000 0.000001 0.000000
vn -1.000000 0.000001 0.000000
vn -1.000000 0.000001 0.000000
vn 0.000000 -0.123349 0.992363
vn 0.000000 -0.123349 0.992363
vn 0.000000 -0.123349 0.992363
vn 0.000000 -0.123349 0.992363
vn 1.000000 0.000000 0.000000
vn 1.000000 0.000000 0.000000
vn 1.000000 0.000000 0.000000
vn 1.000000 0.000000 0.000000
vn 0.000000 0.547133 -0.837046
vn 0.000000 0.547133 -0.837046
vn -1.000000 0.000000 0.000000
vn -1.000000 0.000000 0.000000
vn -1.000000 0.000000 0.000000
vn -1.000000 0.000000 0.000000
vn -0.824225 -0.154852 0.544678
vn -0.708658 0.043576 0.704205
vn -0.909068 0.277339 0.310932
vn -0.991308 -0.028123 0.128524
vn -0.523724 0.251963 0.813774
vn -0.716869 0.561839 0.412839
vn -0.281219 0.444926 0.850269
vn -0.410237 0.782352 0.468647
vn -0.002920 0.598288 0.801275
vn -0.007021 0.908446 0.417944
vn -0.002920 -0.934701 0.355423
vn -0.281219 -0.831538 0.479020
vn -0.410237 -0.911662 -0.024043
vn -0.007021 -0.990894 -0.134462
vn -0.523724 -0.649103 0.551705
vn -0.716868 -0.695615 0.047118
vn -0.708660 -0.414458 0.570986
vn -0.909068 -0.400837 0.113689
vn -0.824225 -0.161421 0.542768
vn -0.991308 -0.045194 0.123559
vn 0.657590 0.214510 -0.722192
vn 0.413808 0.395454 -0.819987
vn 0.909067 0.400838 -0.113692
vn 0.991308 0.045193 -0.123555
vn 0.302854 0.518121 -0.799894
vn 0.716869 0.695614 -0.047119
vn 0.171825 0.623666 -0.762572
vn 0.410237 0.911662 0.024044
vn 0.003260 0.806671 -0.590992
vn 0.007021 0.990893 0.134468
vn -0.657640 0.214480 -0.722155
vn -0.413808 0.395454 -0.819987
vn -0.181884 0.330338 -0.926172
vn -0.242534 0.271674 -0.931327
vn -0.302854 0.518121 -0.799894
vn -0.124924 0.382233 -0.915583
vn -0.171825 0.623667 -0.762572
vn -0.067251 0.431775 -0.899471
vn -0.003260 0.806671 -0.590992
vn -0.000660 0.485347 -0.874321
vn -0.002336 -0.355999 -0.934483
vn -0.153844 -0.125754 -0.980060
vn -0.066864 0.112648 -0.991383
vn -0.000791 0.059272 -0.998242
vn -0.286696 -0.022797 -0.957750
vn -0.120838 0.166184 -0.978663
vn -0.403220 0.088766 -0.910788
vn -0.174924 0.218237 -0.960091
vn -0.652339 0.205519 -0.729532
vn -0.242524 0.270300 -0.931730
vn 0.824222 -0.161422 0.542771
vn 0.708660 -0.414457 0.570986
vn 0.909068 -0.400837 0.113689
vn 0.991308 -0.045194 0.123559
vn 0.523724 -0.649103 0.551705
vn 0.716868 -0.695615 0.047118
vn 0.281220 -0.831538 0.479020
vn 0.410237 -0.911662 -0.024043
vn 0.002920 -0.934701 0.355423
vn 0.007021 -0.990894 -0.134462
vn 0.657591 0.206273 -0.724586
vn 0.413804 0.106000 -0.904174
vn 0.181878 0.217913 -0.958871
vn 0.242528 0.270187 -0.931761
vn 0.302854 -0.008306 -0.953001
vn 0.124923 0.168436 -0.977765
vn 0.171825 -0.117408 -0.978106
vn 0.067250 0.117977 -0.990736
vn 0.003268 -0.363860 -0.931448
vn 0.000662 0.059280 -0.998241
vn 0.002920 0.598288 0.801276
vn 0.007021 0.908445 0.417945
vn -0.007021 0.990893 0.134468
vn 0.000660 0.485347 -0.874321
vn -0.991255 0.045299 -0.123947
vn -0.986728 0.037700 -0.157943
vn -0.007547 -0.918755 -0.394757
vn 0.007025 -0.908575 -0.417663
vn 0.991308 0.028122 -0.128522
vn 0.991308 -0.028122 0.128523
vn 0.824222 -0.154854 0.544682
vn 0.242528 0.271678 -0.931328
vn -0.000000 0.279270 -0.960213
vn -0.000000 0.279270 -0.960213
vn -0.000000 0.279270 -0.960213
vn -0.000000 0.279270 -0.960213
vn 0.708657 0.043574 0.704207
vn 0.909068 0.277339 0.310933
vn 0.523723 0.251962 0.813774
vn 0.716868 0.561839 0.412840
vn 0.281220 0.444925 0.850269
vn 0.410237 0.782352 0.468648
vn 0.181884 0.330338 -0.926173
vn 0.124924 0.382233 -0.915583
vn 0.067251 0.431776 -0.899470
vn -0.909068 0.400837 -0.113692
vn -0.716869 0.695614 -0.047120
vn -0.410237 0.911662 0.024045
vn -0.407947 -0.775923 -0.481168
vn -0.714790 -0.565813 -0.411011
vn -0.913050 -0.282990 -0.293696
vn 0.909067 -0.277340 -0.310933
vn 0.716868 -0.561840 -0.412840
vn 0.410238 -0.782351 -0.468649
vn -0.935806 0.338490 0.098443
vn -0.739820 0.646037 0.187890
vn -0.739821 0.646035 0.187889
vn -0.935807 0.338488 0.098443
vn -0.414502 0.873841 0.254146
vn -0.414502 0.873841 0.254146
vn -0.006492 0.960196 0.279253
vn -0.006492 0.960196 0.279253
vn 0.006492 0.960196 0.279253
vn 0.006492 0.960196 0.279253
vn 0.414502 0.873841 0.254146
vn 0.414501 0.873842 0.254146
vn 0.739820 0.646037 0.187890
vn 0.739821 0.646036 0.187890
vn 0.935808 0.338487 0.098442
vn 0.935809 0.338484 0.098442
vn 0.999966 0.007929 0.002306
vn 0.999966 0.007929 0.002306
vn 0.999966 -0.007928 -0.002306
vn 0.999966 -0.007928 -0.002306
vn 0.935805 -0.338491 -0.098449
vn 0.935806 -0.338490 -0.098449
vn 0.739819 -0.646036 -0.187897
vn 0.739819 -0.646036 -0.187897
vn 0.414501 -0.873840 -0.254152
vn 0.414502 -0.873839 -0.254152
vn 0.006491 -0.960191 -0.279269
vn 0.006492 -0.960191 -0.279269
vn -0.006491 -0.960191 -0.279269
vn -0.006492 -0.960191 -0.279269
vn -0.414501 -0.873840 -0.254152
vn -0.414502 -0.873839 -0.254152
vn -0.739819 -0.646036 -0.187897
vn -0.739819 -0.646036 -0.187897
vn -0.935806 -0.338490 -0.098449
vn -0.935806 -0.338490 -0.098449
vn -0.999966 -0.007928 -0.002306
vn -0.999966 -0.007928 -0.002306
vn -0.999966 0.007929 0.002306
vn -0.999966 0.007929 0.002306
vn 0.000000 0.279270 -0.960213
vn 0.000000 0.279270 -0.960213
vn 0.000000 0.279270 -0.960213
vn 0.000000 0.279270 -0.960213
vn 0.000002 0.279270 -0.960213
vn 0.000002 0.279270 -0.960213
vn 0.000000 0.279271 -0.960212
vn 0.000000 0.279271 -0.960212
vn -0.000000 0.279270 -0.960213
vn -0.000000 0.279270 -0.960213
vn 0.000000 0.279270 -0.960213
vn 0.000000 0.279270 -0.960213
vn -0.000002 0.279270 -0.960213
vn -0.000002 0.279270 -0.960213
vn 0.000000 0.279271 -0.960212
vn 0.000000 0.279271 -0.960212
s 1
g OfficeTablet FinalModels
usemtl initialShadingGroup
f 2/1/1 8/2/2 7/36/3
s 2
f 5/38/4 6/5/5 10/6/6 9/35/7
s off
f 1/10/8 10/6/9 8/2/10 2/1/11
s 3
f 5/4/12 9/7/13 7/3/14 3/37/15
s 1
f 7/36/3 8/2/2 4/12/16 3/11/17
s 2
f 9/35/7 10/6/6 1/10/18
s 4
f 12/39/19 11/21/20 13/13/21 14/23/22
s 3
f 7/3/14 9/7/13 1/10/23 2/1/24
s off
f 8/8/25 10/9/26 15/32/27 16/33/28
s 5
f 10/9/29 6/34/30 17/19/31 15/32/32
s 6
f 4/18/33 8/8/34 16/33/35 18/17/36
s off
f 20/24/37 19/25/38 21/26/39 22/27/40
s 5
f 15/28/32 17/29/31 13/22/41 11/40/42
s 6
f 18/30/36 16/16/35 12/20/43 14/14/44
s off
f 16/31/45 15/15/46 19/25/47 20/24/48
f 15/28/49 11/40/50 21/26/51 19/25/52
s 4
f 11/21/20 12/39/19 22/27/53 21/26/54
s off
f 12/20/55 16/16/56 20/24/57 22/27/58
s 7
f 32/41/59 31/42/60 39/43/61 38/44/62
f 31/42/60 30/45/63 40/46/64 39/43/61
f 30/47/63 29/48/65 41/49/66 40/50/64
f 29/48/65 28/51/67 42/52/68 41/49/66
f 47/53/69 46/54/70 49/55/71 48/56/72
f 46/54/70 45/57/73 50/58/74 49/55/71
f 45/57/73 44/59/75 51/60/76 50/58/74
f 44/59/75 43/61/77 52/62/78 51/60/76
f 57/63/79 56/64/80 59/65/81 58/66/82
f 56/64/80 55/67/83 60/68/84 59/65/81
f 55/67/83 54/69/85 61/70/86 60/68/84
f 54/69/85 53/71/87 62/72/88 61/70/86
f 72/73/89 71/74/90 79/75/91 78/76/92
f 71/74/90 70/77/93 80/78/94 79/75/91
f 70/79/93 69/80/95 81/81/96 80/82/94
f 69/80/95 68/83/97 82/84/98 81/81/96
f 92/85/99 91/86/100 94/87/101 93/88/102
f 91/86/100 90/89/103 95/90/104 94/87/101
f 90/89/103 89/91/105 96/92/106 95/90/104
f 89/91/105 88/93/107 97/94/108 96/92/106
f 102/95/109 101/96/110 104/97/111 103/98/112
f 101/96/110 100/99/113 105/100/114 104/97/111
f 100/101/113 99/102/115 106/103/116 105/104/114
f 99/102/115 98/105/117 107/106/118 106/103/116
f 117/107/119 116/108/120 118/109/121 122/110/122
f 116/108/120 115/111/123 119/112/124 118/109/121
f 115/113/123 114/114/125 120/115/126 119/116/124
f 114/114/125 113/117/127 121/118/128 120/115/126
f 23/119/129 33/120/130 42/52/68 28/51/67
f 62/72/88 53/71/87 68/83/97 63/121/131
f 53/71/87 73/122/132 82/84/98 68/83/97
f 33/120/130 62/72/88 63/121/131 42/52/68
f 38/44/62 67/123/133 83/124/134 52/62/78
f 48/56/72 87/125/135 108/126/136 107/106/118
f 103/98/112 112/127/137 58/66/82 37/128/138
f 32/41/59 38/44/62 52/62/78 43/61/77
f 67/123/133 72/73/89 88/93/107 83/124/134
f 72/73/89 78/76/92 97/94/108 88/93/107
f 47/53/69 48/56/72 107/106/118 98/105/117
f 87/125/135 92/85/99 113/117/127 108/126/136
f 92/85/99 93/88/102 121/118/128 113/117/127
f 37/128/138 27/129/139 102/95/109 103/98/112
f 77/130/140 57/63/79 117/107/119 122/110/122
f 57/63/79 58/66/82 112/127/137 117/107/119
s 14
f 136/131/141 127/132/142 128/133/143 135/134/144
s 7
f 26/135/145 27/129/139 37/128/138 36/136/146
f 25/137/147 26/135/145 36/136/146 35/138/148
f 23/119/129 24/139/149 34/140/150 33/120/130
f 24/139/149 25/137/147 35/138/148 34/140/150
f 56/64/80 57/63/79 77/130/140 76/141/151
f 55/67/83 56/64/80 76/141/151 75/142/152
f 53/71/87 54/69/85 74/143/153 73/122/132
f 54/69/85 55/67/83 75/142/152 74/143/153
f 33/120/130 34/140/150 61/70/86 62/72/88
f 34/140/150 35/138/148 60/68/84 61/70/86
f 35/138/148 36/136/146 59/65/81 60/68/84
f 36/136/146 37/128/138 58/66/82 59/65/81
f 38/44/62 39/43/61 66/144/154 67/123/133
f 39/43/61 40/46/64 65/145/155 66/144/154
f 40/50/64 41/49/66 64/146/156 65/147/155
f 41/49/66 42/52/68 63/121/131 64/146/156
f 67/123/133 66/144/154 71/74/90 72/73/89
f 66/144/154 65/145/155 70/77/93 71/74/90
f 65/147/155 64/146/156 69/80/95 70/79/93
f 64/146/156 63/121/131 68/83/97 69/80/95
f 48/56/72 49/55/71 86/148/157 87/125/135
f 49/55/71 50/58/74 85/149/158 86/148/157
f 50/58/74 51/60/76 84/150/159 85/149/158
f 51/60/76 52/62/78 83/124/134 84/150/159
f 87/125/135 86/148/157 91/86/100 92/85/99
f 86/148/157 85/149/158 90/89/103 91/86/100
f 85/149/158 84/150/159 89/91/105 90/89/103
f 84/150/159 83/124/134 88/93/107 89/91/105
f 103/98/112 104/97/111 111/151/160 112/127/137
f 104/97/111 105/100/114 110/152/161 111/151/160
f 105/104/114 106/103/116 109/153/162 110/154/161
f 106/103/116 107/106/118 108/126/136 109/153/162
f 112/127/137 111/151/160 116/108/120 117/107/119
f 111/151/160 110/152/161 115/111/123 116/108/120
f 110/154/161 109/153/162 114/114/125 115/113/123
f 109/153/162 108/126/136 113/117/127 114/114/125
s 15
f 118/155/163 119/156/164 123/157/165 124/158/166
f 119/159/164 120/160/167 125/161/168 123/162/165
f 120/160/167 121/163/169 126/164/170 125/161/168
f 121/163/169 93/165/171 127/166/172 126/164/170
f 93/165/171 94/167/173 128/168/174 127/166/172
f 94/169/173 95/170/175 129/171/176 128/172/174
f 95/170/175 96/173/177 130/174/178 129/171/176
f 96/173/177 97/175/179 131/176/180 130/174/178
f 97/175/179 78/177/181 132/178/182 131/176/180
f 78/177/181 79/179/183 133/180/184 132/178/182
f 79/179/183 80/181/185 134/182/186 133/180/184
f 80/183/185 81/184/187 135/185/188 134/186/186
f 81/184/187 82/187/189 136/188/190 135/185/188
f 82/187/189 73/189/191 137/190/192 136/188/190
f 73/191/191 74/192/193 138/193/194 137/194/192
f 74/192/193 75/195/195 139/196/196 138/193/194
f 75/195/195 76/197/197 140/198/198 139/196/196
f 76/197/197 77/199/199 141/200/200 140/198/198
f 77/199/199 122/201/201 142/202/202 141/200/200
f 122/201/201 118/155/163 124/158/166 142/202/202
s 14
f 137/203/203 126/204/204 127/132/142 136/131/141
f 134/205/205 129/206/206 130/207/207 133/208/208
f 135/134/144 128/133/143 129/206/206 134/205/205
f 133/208/208 130/207/207 131/209/209 132/210/210
f 139/211/211 123/212/212 125/213/213 138/214/214
f 138/214/214 125/213/213 126/204/204 137/203/203
f 124/215/215 140/216/216 141/217/217 142/218/218
f 124/215/215 123/212/212 139/211/211 140/216/216
