# This file uses centimeters as units for non-parametric coordinates.

mtllib ClosetBasicBookV2.mtl
g default
v 0.073599 0.149339 0.022858
v 0.073599 0.149339 -0.022858
v 0.073599 0.000347 -0.022858
v 0.073599 0.000347 0.022858
v -0.072434 0.149339 -0.020850
v -0.073599 0.149339 -0.016001
v -0.069619 0.149339 -0.022858
v -0.073599 0.000347 -0.016001
v -0.072434 0.000347 -0.020850
v -0.069619 0.000347 -0.022858
v -0.072434 0.149339 0.020850
v -0.069619 0.149339 0.022858
v -0.073599 0.149339 0.016001
v -0.072434 0.000347 0.020850
v -0.073599 0.000347 0.016001
v -0.069619 0.000347 0.022858
vt 0.444636 0.426838
vt 0.000592 0.427453
vt 0.000000 0.000615
vt 0.444044 0.000000
vt 0.000794 0.573163
vt 0.444838 0.572547
vt 0.445429 0.999385
vt 0.001385 1.000000
vt 0.444803 0.547381
vt 0.000759 0.547996
vt 0.000627 0.452619
vt 0.444671 0.452003
vt 0.000606 0.437757
vt 0.444650 0.437142
vt 0.000779 0.562858
vt 0.444824 0.562242
vn -0.013751 0.000000 -0.999906
vn -0.013751 0.000000 -0.999906
vn 0.000000 0.000000 -1.000000
vn 0.000000 0.000000 -1.000000
vn -0.013752 -0.000000 0.999905
vn -0.013752 -0.000000 0.999905
vn 0.000000 -0.000000 1.000000
vn 0.000000 -0.000000 1.000000
vn -0.999500 -0.000000 0.031619
vn -0.999500 -0.000000 0.031619
vn -0.999500 -0.000000 -0.031619
vn -0.999500 -0.000000 -0.031619
vn -0.972288 -0.000000 -0.233785
vn -0.972288 -0.000000 -0.233785
vn -0.580850 -0.000000 -0.814011
vn -0.580850 -0.000000 -0.814011
vn -0.580870 -0.000000 0.813996
vn -0.580870 -0.000000 0.813996
vn -0.972288 0.000000 0.233785
vn -0.972288 0.000000 0.233785
s 1
g BasicBookV2
usemtl initialShadingGroup
f 10/1/1 7/2/2 2/3/3 3/4/4
s 2
f 12/5/5 16/6/6 4/7/7 1/8/8
s 3
f 15/9/9 13/10/10 6/11/11 8/12/12
f 6/11/11 5/13/13 9/14/14 8/12/12
s 1
f 5/13/15 7/2/2 10/1/1 9/14/16
s 2
f 12/5/5 11/15/17 14/16/18 16/6/6
s 3
f 11/15/19 13/10/10 15/9/9 14/16/20
