# This file uses centimeters as units for non-parametric coordinates.

mtllib ClosetBasicBookV1.mtl
g default
v 0.073599 0.196010 0.015391
v 0.073599 0.196010 -0.011147
v 0.073599 0.000307 -0.011147
v 0.073599 0.000307 0.015391
v -0.072434 0.196010 -0.009981
v -0.073599 0.196010 -0.007167
v -0.069619 0.196010 -0.011147
v -0.073599 0.000307 -0.007167
v -0.072434 0.000307 -0.009981
v -0.069619 0.000307 -0.011147
v -0.072434 0.196010 0.014225
v -0.069619 0.196010 0.015391
v -0.073599 0.196010 0.011410
v -0.072434 0.000307 0.014225
v -0.073599 0.000307 0.011410
v -0.069619 0.000307 0.015391
vt 0.616970 0.451510
vt 0.000000 0.451509
vt 0.000000 0.000000
vt 0.616970 0.000000
vt 0.000000 0.548490
vt 0.616970 0.548490
vt 0.616970 1.000000
vt 0.000000 1.000000
vt 0.616970 0.529283
vt 0.000000 0.529283
vt 0.000000 0.470717
vt 0.616970 0.470717
vt 0.000000 0.461113
vt 0.616970 0.461114
vt 0.000000 0.538886
vt 0.616970 0.538887
vn -0.007983 0.000000 -0.999968
vn -0.007983 0.000000 -0.999968
vn 0.000000 0.000000 -1.000000
vn 0.000000 0.000000 -1.000000
vn -0.007983 -0.000000 0.999968
vn -0.007983 -0.000000 0.999968
vn 0.000000 0.000000 1.000000
vn 0.000000 0.000000 1.000000
vn -0.998518 0.000000 0.054417
vn -0.998518 0.000000 0.054417
vn -0.998518 -0.000000 -0.054417
vn -0.998518 -0.000000 -0.054417
vn -0.923879 -0.000000 -0.382686
vn -0.923878 -0.000000 -0.382686
vn -0.382683 0.000000 -0.923880
vn -0.382683 0.000000 -0.923880
vn -0.382704 -0.000000 0.923871
vn -0.382704 -0.000000 0.923871
vn -0.923877 0.000000 0.382690
vn -0.923877 0.000000 0.382690
s 1
g BasicBookV1
usemtl initialShadingGroup
f 10/1/1 7/2/2 2/3/3 3/4/4
s 2
f 12/5/5 16/6/6 4/7/7 1/8/8
s 3
f 15/9/9 13/10/10 6/11/11 8/12/12
f 6/11/11 5/13/13 9/14/14 8/12/12
s 1
f 5/13/15 7/2/2 10/1/1 9/14/16
s 2
f 12/5/5 11/15/17 14/16/18 16/6/6
s 3
f 11/15/19 13/10/10 15/9/9 14/16/20
